<svg xmlns="http://www.w3.org/2000/svg" viewBox="0 0 200 80">
  <defs>
    <linearGradient id="yellowOrange" x1="0%" y1="0%" x2="0%" y2="100%">
      <stop offset="0%" style="stop-color:#FFD700;stop-opacity:1" />
      <stop offset="100%" style="stop-color:#FF8C00;stop-opacity:1" />
    </linearGradient>
    <linearGradient id="cyanTurquoise" x1="0%" y1="0%" x2="0%" y2="100%">
      <stop offset="0%" style="stop-color:#00CED1;stop-opacity:1" />
      <stop offset="100%" style="stop-color:#40E0D0;stop-opacity:1" />
    </linearGradient>
  </defs>
  
  <!-- Libro abierto (fondo) -->
  <rect x="10" y="45" width="50" height="25" rx="2" fill="url(#cyanTurquoise)"/>
  <rect x="10" y="45" width="25" height="25" rx="2" fill="#4169E1"/>
  <rect x="35" y="45" width="25" height="25" rx="2" fill="#00CED1"/>
  
  <!-- Globo terráqueo -->
  <circle cx="35" cy="35" r="18" fill="url(#yellowOrange)" stroke="#000" stroke-width="1.5"/>
  <!-- Líneas del globo -->
  <line x1="17" y1="35" x2="53" y2="35" stroke="#000" stroke-width="1"/>
  <line x1="17" y1="27" x2="53" y2="27" stroke="#000" stroke-width="1"/>
  <line x1="17" y1="43" x2="53" y2="43" stroke="#000" stroke-width="1"/>
  <path d="M 35 17 Q 27 35 35 53" fill="none" stroke="#000" stroke-width="1"/>
  <path d="M 35 17 Q 43 35 35 53" fill="none" stroke="#000" stroke-width="1"/>
  
  <!-- Contorno del libro -->
  <path d="M 10 45 L 10 70 L 35 70 L 35 45 Z" fill="none" stroke="#000" stroke-width="1.5"/>
  <path d="M 35 45 L 35 70 L 60 70 L 60 45 Z" fill="none" stroke="#000" stroke-width="1.5"/>
  <line x1="35" y1="45" x2="35" y2="70" stroke="#000" stroke-width="1.5"/>
  
  <!-- Texto RELATIC -->
  <text x="75" y="50" font-family="Arial, sans-serif" font-size="24" font-weight="bold" fill="#000">RELATIC</text>
  <text x="75" y="65" font-family="Arial, sans-serif" font-size="12" fill="#4169E1">PANAMÁ</text>
</svg>
